<mxfile host="drawio-plugin" modified="2023-10-13T07:44:05.816Z" agent="5.0 (Windows NT 6.2; Win64; x64) AppleWebKit/537.36 (KHTML, like Gecko) Chrome/104.0.5112.102 Safari/537.36" etag="iWmzNsEc4txpIJYubv_3" version="20.5.3" type="embed"><diagram id="KgLYHpspB5AZDMCy-aYB" name="Page-1"><mxGraphModel dx="1916" dy="146" grid="1" gridSize="10" guides="1" tooltips="1" connect="1" arrows="1" fold="1" page="1" pageScale="1" pageWidth="827" pageHeight="1169" math="0" shadow="0"><root><mxCell id="0"/><mxCell id="1" parent="0"/><mxCell id="3" value="&lt;div&gt;&lt;b&gt;bigg&lt;/b&gt;:http://bigg-project.eu/ontology#&lt;/div&gt;&lt;div&gt;&lt;/div&gt;&lt;b&gt;rdfs:&lt;/b&gt; http://www.w3.org/2000/01/rdf-schema#&lt;br&gt;&lt;div&gt;&lt;span style=&quot;background-color: initial;&quot;&gt;&lt;b&gt;skos&lt;/b&gt;: http://www.w3.org/2004/02/skos/core#&lt;/span&gt;&lt;br&gt;&lt;/div&gt;&lt;div&gt;&lt;b&gt;owl&lt;/b&gt;: http://www.w3.org/2002/07/owl#&lt;/div&gt;&lt;b&gt;foaf:&amp;nbsp;&lt;/b&gt;http://xmlns.com/foaf/0.1/&lt;br&gt;&lt;b&gt;s4bldg:&amp;nbsp;&lt;/b&gt;https://saref.etsi.org/saref4bldg/&lt;br&gt;&lt;div&gt;&lt;b&gt;xsd&lt;/b&gt;: http://www.w3.org/2001/XMLSchema#&lt;/div&gt;&lt;div&gt;&lt;span style=&quot;background-color: initial;&quot;&gt;&lt;b&gt;geo&lt;/b&gt;: http://www.geonames.org/ontology#&lt;/span&gt;&lt;/div&gt;" style="shape=note;whiteSpace=wrap;html=1;backgroundOutline=1;darkOpacity=0.05;align=center;" parent="1" vertex="1"><mxGeometry x="-418" y="160" width="308" height="130" as="geometry"/></mxCell><mxCell id="189" value="&lt;div style=&quot;&quot;&gt;&lt;b&gt;dc:creator:&lt;/b&gt;&amp;nbsp;Edgar Martínez-Sarmiento&lt;/div&gt;&lt;div style=&quot;&quot;&gt;&lt;b style=&quot;&quot;&gt;dc:contributor&lt;/b&gt;&lt;span style=&quot;&quot;&gt;:&amp;nbsp;Eloi Gabaldon&lt;/span&gt;&lt;/div&gt;&lt;div style=&quot;&quot;&gt;&lt;div style=&quot;&quot;&gt;&lt;b&gt;dc:contributor&lt;/b&gt;:&amp;nbsp;Guillaume Picinbono&lt;br&gt;&lt;/div&gt;&lt;div style=&quot;&quot;&gt;&lt;b&gt;dc:contributor&lt;/b&gt;:&amp;nbsp;Nicolas Bus&lt;br&gt;&lt;/div&gt;&lt;div style=&quot;&quot;&gt;&lt;b&gt;dc:contributor&lt;/b&gt;:&amp;nbsp;Stoyan Danov&lt;br&gt;&lt;/div&gt;&lt;div style=&quot;&quot;&gt;&lt;b&gt;dc:contributor&lt;/b&gt;:&amp;nbsp;Timson Yeung&lt;/div&gt;&lt;div style=&quot;&quot;&gt;&lt;b style=&quot;&quot;&gt;owl:versionInfo:&lt;/b&gt;&lt;span style=&quot;&quot;&gt;&amp;nbsp;2.1&lt;/span&gt;&lt;/div&gt;&lt;/div&gt;&lt;div style=&quot;&quot;&gt;&lt;b&gt;dc:title:&lt;/b&gt;&amp;nbsp;Project BIGG ontology extension&lt;/div&gt;" style="shape=document;whiteSpace=wrap;html=1;boundedLbl=1;labelBackgroundColor=#ffffff;strokeColor=#000000;fontSize=12;fontColor=#000000;size=0.23333333333333334;align=center;labelPosition=center;verticalLabelPosition=middle;verticalAlign=middle;" parent="1" vertex="1"><mxGeometry x="99" y="160" width="350" height="180" as="geometry"/></mxCell><mxCell id="393" value="bigg:Project" style="rounded=0;whiteSpace=wrap;html=1;snapToPoint=1;points=[[0.1,0],[0.2,0],[0.3,0],[0.4,0],[0.5,0],[0.6,0],[0.7,0],[0.8,0],[0.9,0],[0,0.1],[0,0.3],[0,0.5],[0,0.7],[0,0.9],[0.1,1],[0.2,1],[0.3,1],[0.4,1],[0.5,1],[0.6,1],[0.7,1],[0.8,1],[0.9,1],[1,0.1],[1,0.3],[1,0.5],[1,0.7],[1,0.9]];fillColor=#d5e8d4;strokeColor=#82b366;" parent="1" vertex="1"><mxGeometry x="-680" y="290" width="179" height="30" as="geometry"/></mxCell><mxCell id="394" value="&lt;span style=&quot;font-size: 8px;&quot;&gt;bigg:projectIDFromOrganization: string&lt;/span&gt;" style="rounded=0;whiteSpace=wrap;html=1;snapToPoint=1;points=[[0.1,0],[0.2,0],[0.3,0],[0.4,0],[0.5,0],[0.6,0],[0.7,0],[0.8,0],[0.9,0],[0,0.1],[0,0.3],[0,0.5],[0,0.7],[0,0.9],[0.1,1],[0.2,1],[0.3,1],[0.4,1],[0.5,1],[0.6,1],[0.7,1],[0.8,1],[0.9,1],[1,0.1],[1,0.3],[1,0.5],[1,0.7],[1,0.9]];fontSize=8;" parent="1" vertex="1"><mxGeometry x="-680" y="319.9999999999999" width="179" height="30" as="geometry"/></mxCell><mxCell id="395" value="&lt;span style=&quot;font-size: 8px;&quot;&gt;bigg:projectName: string&lt;/span&gt;" style="rounded=0;whiteSpace=wrap;html=1;snapToPoint=1;points=[[0.1,0],[0.2,0],[0.3,0],[0.4,0],[0.5,0],[0.6,0],[0.7,0],[0.8,0],[0.9,0],[0,0.1],[0,0.3],[0,0.5],[0,0.7],[0,0.9],[0.1,1],[0.2,1],[0.3,1],[0.4,1],[0.5,1],[0.6,1],[0.7,1],[0.8,1],[0.9,1],[1,0.1],[1,0.3],[1,0.5],[1,0.7],[1,0.9]];fontSize=8;" parent="1" vertex="1"><mxGeometry x="-680" y="349.9999999999999" width="179" height="30" as="geometry"/></mxCell><mxCell id="396" value="&lt;span style=&quot;font-size: 8px;&quot;&gt;bigg:projectDescription: string&lt;/span&gt;" style="rounded=0;whiteSpace=wrap;html=1;snapToPoint=1;points=[[0.1,0],[0.2,0],[0.3,0],[0.4,0],[0.5,0],[0.6,0],[0.7,0],[0.8,0],[0.9,0],[0,0.1],[0,0.3],[0,0.5],[0,0.7],[0,0.9],[0.1,1],[0.2,1],[0.3,1],[0.4,1],[0.5,1],[0.6,1],[0.7,1],[0.8,1],[0.9,1],[1,0.1],[1,0.3],[1,0.5],[1,0.7],[1,0.9]];fontSize=8;" parent="1" vertex="1"><mxGeometry x="-680" y="379.9999999999999" width="179" height="30" as="geometry"/></mxCell><mxCell id="397" value="&lt;span style=&quot;font-size: 8px;&quot;&gt;bigg:geometrySRID: string&lt;/span&gt;" style="rounded=0;whiteSpace=wrap;html=1;snapToPoint=1;points=[[0.1,0],[0.2,0],[0.3,0],[0.4,0],[0.5,0],[0.6,0],[0.7,0],[0.8,0],[0.9,0],[0,0.1],[0,0.3],[0,0.5],[0,0.7],[0,0.9],[0.1,1],[0.2,1],[0.3,1],[0.4,1],[0.5,1],[0.6,1],[0.7,1],[0.8,1],[0.9,1],[1,0.1],[1,0.3],[1,0.5],[1,0.7],[1,0.9]];fontSize=8;" parent="1" vertex="1"><mxGeometry x="-680" y="409.9999999999999" width="179" height="30" as="geometry"/></mxCell><mxCell id="399" value="&lt;span style=&quot;font-size: 8px;&quot;&gt;bigg:projectDiscountRate: float&lt;/span&gt;" style="rounded=0;whiteSpace=wrap;html=1;snapToPoint=1;points=[[0.1,0],[0.2,0],[0.3,0],[0.4,0],[0.5,0],[0.6,0],[0.7,0],[0.8,0],[0.9,0],[0,0.1],[0,0.3],[0,0.5],[0,0.7],[0,0.9],[0.1,1],[0.2,1],[0.3,1],[0.4,1],[0.5,1],[0.6,1],[0.7,1],[0.8,1],[0.9,1],[1,0.1],[1,0.3],[1,0.5],[1,0.7],[1,0.9]];fontSize=8;" parent="1" vertex="1"><mxGeometry x="-680" y="440" width="179" height="30" as="geometry"/></mxCell><mxCell id="400" value="&lt;span style=&quot;font-size: 8px;&quot;&gt;bigg:projectSimplePaybackTime: float&lt;/span&gt;" style="rounded=0;whiteSpace=wrap;html=1;snapToPoint=1;points=[[0.1,0],[0.2,0],[0.3,0],[0.4,0],[0.5,0],[0.6,0],[0.7,0],[0.8,0],[0.9,0],[0,0.1],[0,0.3],[0,0.5],[0,0.7],[0,0.9],[0.1,1],[0.2,1],[0.3,1],[0.4,1],[0.5,1],[0.6,1],[0.7,1],[0.8,1],[0.9,1],[1,0.1],[1,0.3],[1,0.5],[1,0.7],[1,0.9]];fontSize=8;" parent="1" vertex="1"><mxGeometry x="-680" y="470" width="179" height="30" as="geometry"/></mxCell><mxCell id="401" value="&lt;span style=&quot;font-size: 8px;&quot;&gt;bigg:projectOperationalDate: date&lt;/span&gt;" style="rounded=0;whiteSpace=wrap;html=1;snapToPoint=1;points=[[0.1,0],[0.2,0],[0.3,0],[0.4,0],[0.5,0],[0.6,0],[0.7,0],[0.8,0],[0.9,0],[0,0.1],[0,0.3],[0,0.5],[0,0.7],[0,0.9],[0.1,1],[0.2,1],[0.3,1],[0.4,1],[0.5,1],[0.6,1],[0.7,1],[0.8,1],[0.9,1],[1,0.1],[1,0.3],[1,0.5],[1,0.7],[1,0.9]];fontSize=8;" parent="1" vertex="1"><mxGeometry x="-680" y="500" width="179" height="30" as="geometry"/></mxCell><mxCell id="402" value="&lt;span style=&quot;font-size: 8px;&quot;&gt;bigg:projectStartDate: date&lt;/span&gt;" style="rounded=0;whiteSpace=wrap;html=1;snapToPoint=1;points=[[0.1,0],[0.2,0],[0.3,0],[0.4,0],[0.5,0],[0.6,0],[0.7,0],[0.8,0],[0.9,0],[0,0.1],[0,0.3],[0,0.5],[0,0.7],[0,0.9],[0.1,1],[0.2,1],[0.3,1],[0.4,1],[0.5,1],[0.6,1],[0.7,1],[0.8,1],[0.9,1],[1,0.1],[1,0.3],[1,0.5],[1,0.7],[1,0.9]];fontSize=8;" parent="1" vertex="1"><mxGeometry x="-680" y="530" width="179" height="30" as="geometry"/></mxCell><mxCell id="403" value="&lt;span style=&quot;font-size: 8px;&quot;&gt;bigg:projectIncludedConfortmeterSurvey: boolean&lt;/span&gt;" style="rounded=0;whiteSpace=wrap;html=1;snapToPoint=1;points=[[0.1,0],[0.2,0],[0.3,0],[0.4,0],[0.5,0],[0.6,0],[0.7,0],[0.8,0],[0.9,0],[0,0.1],[0,0.3],[0,0.5],[0,0.7],[0,0.9],[0.1,1],[0.2,1],[0.3,1],[0.4,1],[0.5,1],[0.6,1],[0.7,1],[0.8,1],[0.9,1],[1,0.1],[1,0.3],[1,0.5],[1,0.7],[1,0.9]];fontSize=8;" parent="1" vertex="1"><mxGeometry x="-680" y="560" width="179" height="30" as="geometry"/></mxCell><mxCell id="404" value="&lt;span style=&quot;font-size: 8px;&quot;&gt;bigg:projectInterestRate: float&lt;/span&gt;" style="rounded=0;whiteSpace=wrap;html=1;snapToPoint=1;points=[[0.1,0],[0.2,0],[0.3,0],[0.4,0],[0.5,0],[0.6,0],[0.7,0],[0.8,0],[0.9,0],[0,0.1],[0,0.3],[0,0.5],[0,0.7],[0,0.9],[0.1,1],[0.2,1],[0.3,1],[0.4,1],[0.5,1],[0.6,1],[0.7,1],[0.8,1],[0.9,1],[1,0.1],[1,0.3],[1,0.5],[1,0.7],[1,0.9]];fontSize=8;" parent="1" vertex="1"><mxGeometry x="-680" y="590" width="179" height="30" as="geometry"/></mxCell><mxCell id="405" value="&lt;span style=&quot;font-size: 8px;&quot;&gt;bigg:projectGrantsShareOfCosts: float&lt;/span&gt;" style="rounded=0;whiteSpace=wrap;html=1;snapToPoint=1;points=[[0.1,0],[0.2,0],[0.3,0],[0.4,0],[0.5,0],[0.6,0],[0.7,0],[0.8,0],[0.9,0],[0,0.1],[0,0.3],[0,0.5],[0,0.7],[0,0.9],[0.1,1],[0.2,1],[0.3,1],[0.4,1],[0.5,1],[0.6,1],[0.7,1],[0.8,1],[0.9,1],[1,0.1],[1,0.3],[1,0.5],[1,0.7],[1,0.9]];fontSize=8;" parent="1" vertex="1"><mxGeometry x="-680" y="620" width="179" height="30" as="geometry"/></mxCell><mxCell id="406" value="&lt;span style=&quot;font-size: 8px;&quot;&gt;bigg:projectInternalRateOfReturn: float&lt;/span&gt;" style="rounded=0;whiteSpace=wrap;html=1;snapToPoint=1;points=[[0.1,0],[0.2,0],[0.3,0],[0.4,0],[0.5,0],[0.6,0],[0.7,0],[0.8,0],[0.9,0],[0,0.1],[0,0.3],[0,0.5],[0,0.7],[0,0.9],[0.1,1],[0.2,1],[0.3,1],[0.4,1],[0.5,1],[0.6,1],[0.7,1],[0.8,1],[0.9,1],[1,0.1],[1,0.3],[1,0.5],[1,0.7],[1,0.9]];fontSize=8;" parent="1" vertex="1"><mxGeometry x="-680" y="650" width="179" height="30" as="geometry"/></mxCell><mxCell id="407" value="&lt;span style=&quot;font-size: 8px;&quot;&gt;bigg:projectIncludedNonEnergyBenefitsEstimate: boolean&lt;/span&gt;" style="rounded=0;whiteSpace=wrap;html=1;snapToPoint=1;points=[[0.1,0],[0.2,0],[0.3,0],[0.4,0],[0.5,0],[0.6,0],[0.7,0],[0.8,0],[0.9,0],[0,0.1],[0,0.3],[0,0.5],[0,0.7],[0,0.9],[0.1,1],[0.2,1],[0.3,1],[0.4,1],[0.5,1],[0.6,1],[0.7,1],[0.8,1],[0.9,1],[1,0.1],[1,0.3],[1,0.5],[1,0.7],[1,0.9]];fontSize=8;" parent="1" vertex="1"><mxGeometry x="-680" y="680" width="179" height="30" as="geometry"/></mxCell><mxCell id="408" value="&lt;span style=&quot;font-size: 8px;&quot;&gt;bigg:projectCurrencyExchangeRate: float&lt;/span&gt;" style="rounded=0;whiteSpace=wrap;html=1;snapToPoint=1;points=[[0.1,0],[0.2,0],[0.3,0],[0.4,0],[0.5,0],[0.6,0],[0.7,0],[0.8,0],[0.9,0],[0,0.1],[0,0.3],[0,0.5],[0,0.7],[0,0.9],[0.1,1],[0.2,1],[0.3,1],[0.4,1],[0.5,1],[0.6,1],[0.7,1],[0.8,1],[0.9,1],[1,0.1],[1,0.3],[1,0.5],[1,0.7],[1,0.9]];fontSize=8;" parent="1" vertex="1"><mxGeometry x="-680" y="710" width="179" height="30" as="geometry"/></mxCell><mxCell id="409" value="&lt;span style=&quot;font-size: 8px;&quot;&gt;bigg:projectUsesIncentives: boolean&lt;/span&gt;" style="rounded=0;whiteSpace=wrap;html=1;snapToPoint=1;points=[[0.1,0],[0.2,0],[0.3,0],[0.4,0],[0.5,0],[0.6,0],[0.7,0],[0.8,0],[0.9,0],[0,0.1],[0,0.3],[0,0.5],[0,0.7],[0,0.9],[0.1,1],[0.2,1],[0.3,1],[0.4,1],[0.5,1],[0.6,1],[0.7,1],[0.8,1],[0.9,1],[1,0.1],[1,0.3],[1,0.5],[1,0.7],[1,0.9]];fontSize=8;" parent="1" vertex="1"><mxGeometry x="-680" y="740" width="179" height="30" as="geometry"/></mxCell><mxCell id="410" value="&lt;span style=&quot;font-size: 8px;&quot;&gt;bigg:projectNetPresentValue: float&lt;/span&gt;" style="rounded=0;whiteSpace=wrap;html=1;snapToPoint=1;points=[[0.1,0],[0.2,0],[0.3,0],[0.4,0],[0.5,0],[0.6,0],[0.7,0],[0.8,0],[0.9,0],[0,0.1],[0,0.3],[0,0.5],[0,0.7],[0,0.9],[0.1,1],[0.2,1],[0.3,1],[0.4,1],[0.5,1],[0.6,1],[0.7,1],[0.8,1],[0.9,1],[1,0.1],[1,0.3],[1,0.5],[1,0.7],[1,0.9]];fontSize=8;" parent="1" vertex="1"><mxGeometry x="-680" y="770" width="179" height="30" as="geometry"/></mxCell><mxCell id="411" value="&lt;span style=&quot;font-size: 8px;&quot;&gt;bigg:projectInventivesShareOfRevenues: float&lt;/span&gt;" style="rounded=0;whiteSpace=wrap;html=1;snapToPoint=1;points=[[0.1,0],[0.2,0],[0.3,0],[0.4,0],[0.5,0],[0.6,0],[0.7,0],[0.8,0],[0.9,0],[0,0.1],[0,0.3],[0,0.5],[0,0.7],[0,0.9],[0.1,1],[0.2,1],[0.3,1],[0.4,1],[0.5,1],[0.6,1],[0.7,1],[0.8,1],[0.9,1],[1,0.1],[1,0.3],[1,0.5],[1,0.7],[1,0.9]];fontSize=8;" parent="1" vertex="1"><mxGeometry x="-680" y="800" width="179" height="30" as="geometry"/></mxCell><mxCell id="412" value="&lt;span style=&quot;font-size: 8px;&quot;&gt;bigg:projectReceivedGrantFounding: boolean&lt;/span&gt;" style="rounded=0;whiteSpace=wrap;html=1;snapToPoint=1;points=[[0.1,0],[0.2,0],[0.3,0],[0.4,0],[0.5,0],[0.6,0],[0.7,0],[0.8,0],[0.9,0],[0,0.1],[0,0.3],[0,0.5],[0,0.7],[0,0.9],[0.1,1],[0.2,1],[0.3,1],[0.4,1],[0.5,1],[0.6,1],[0.7,1],[0.8,1],[0.9,1],[1,0.1],[1,0.3],[1,0.5],[1,0.7],[1,0.9]];fontSize=8;" parent="1" vertex="1"><mxGeometry x="-680" y="830" width="179" height="30" as="geometry"/></mxCell><mxCell id="413" value="&lt;span style=&quot;font-size: 8px;&quot;&gt;bigg:projectSavingsToInvestmentRatio: float&lt;/span&gt;" style="rounded=0;whiteSpace=wrap;html=1;snapToPoint=1;points=[[0.1,0],[0.2,0],[0.3,0],[0.4,0],[0.5,0],[0.6,0],[0.7,0],[0.8,0],[0.9,0],[0,0.1],[0,0.3],[0,0.5],[0,0.7],[0,0.9],[0.1,1],[0.2,1],[0.3,1],[0.4,1],[0.5,1],[0.6,1],[0.7,1],[0.8,1],[0.9,1],[1,0.1],[1,0.3],[1,0.5],[1,0.7],[1,0.9]];fontSize=8;" parent="1" vertex="1"><mxGeometry x="-680" y="860" width="179" height="30" as="geometry"/></mxCell><mxCell id="414" value="&lt;span style=&quot;font-size: 8px;&quot;&gt;bigg:projectInvestment: float&lt;/span&gt;" style="rounded=0;whiteSpace=wrap;html=1;snapToPoint=1;points=[[0.1,0],[0.2,0],[0.3,0],[0.4,0],[0.5,0],[0.6,0],[0.7,0],[0.8,0],[0.9,0],[0,0.1],[0,0.3],[0,0.5],[0,0.7],[0,0.9],[0.1,1],[0.2,1],[0.3,1],[0.4,1],[0.5,1],[0.6,1],[0.7,1],[0.8,1],[0.9,1],[1,0.1],[1,0.3],[1,0.5],[1,0.7],[1,0.9]];fontSize=8;" parent="1" vertex="1"><mxGeometry x="-680" y="890" width="179" height="30" as="geometry"/></mxCell><mxCell id="416" value="&lt;span style=&quot;font-size: 8px;&quot;&gt;bigg:projectCO2Reduction: float&lt;/span&gt;" style="rounded=0;whiteSpace=wrap;html=1;snapToPoint=1;points=[[0.1,0],[0.2,0],[0.3,0],[0.4,0],[0.5,0],[0.6,0],[0.7,0],[0.8,0],[0.9,0],[0,0.1],[0,0.3],[0,0.5],[0,0.7],[0,0.9],[0.1,1],[0.2,1],[0.3,1],[0.4,1],[0.5,1],[0.6,1],[0.7,1],[0.8,1],[0.9,1],[1,0.1],[1,0.3],[1,0.5],[1,0.7],[1,0.9]];fontSize=8;" parent="1" vertex="1"><mxGeometry x="-235" y="830" width="135" height="30" as="geometry"/></mxCell><mxCell id="418" value="s4bldg:Building" style="rounded=0;whiteSpace=wrap;html=1;snapToPoint=1;points=[[0.1,0],[0.2,0],[0.3,0],[0.4,0],[0.5,0],[0.6,0],[0.7,0],[0.8,0],[0.9,0],[0,0.1],[0,0.3],[0,0.5],[0,0.7],[0,0.9],[0.1,1],[0.2,1],[0.3,1],[0.4,1],[0.5,1],[0.6,1],[0.7,1],[0.8,1],[0.9,1],[1,0.1],[1,0.3],[1,0.5],[1,0.7],[1,0.9]];" parent="1" vertex="1"><mxGeometry x="-354" y="729.05" width="114" height="30" as="geometry"/></mxCell><mxCell id="419" value="bigg:Project" style="rounded=0;whiteSpace=wrap;html=1;snapToPoint=1;points=[[0.1,0],[0.2,0],[0.3,0],[0.4,0],[0.5,0],[0.6,0],[0.7,0],[0.8,0],[0.9,0],[0,0.1],[0,0.3],[0,0.5],[0,0.7],[0,0.9],[0.1,1],[0.2,1],[0.3,1],[0.4,1],[0.5,1],[0.6,1],[0.7,1],[0.8,1],[0.9,1],[1,0.1],[1,0.3],[1,0.5],[1,0.7],[1,0.9]];" parent="1" vertex="1"><mxGeometry x="-100" y="699.05" width="168" height="30" as="geometry"/></mxCell><mxCell id="420" value="" style="endArrow=classic;html=1;endSize=8;arcSize=0;rounded=0;fontFamily=Helvetica;fontSize=10;fontColor=#000000;entryX=0;entryY=0.7;entryDx=0;entryDy=0;exitX=0.8;exitY=0;exitDx=0;exitDy=0;edgeStyle=orthogonalEdgeStyle;" parent="1" source="418" target="419" edge="1"><mxGeometry width="50" height="50" relative="1" as="geometry"><mxPoint x="-26.110000000000127" y="934.05" as="sourcePoint"/><mxPoint x="-27" y="754.05" as="targetPoint"/></mxGeometry></mxCell><mxCell id="421" value="&lt;div&gt;bigg:hasProject&lt;/div&gt;" style="text;html=1;align=center;verticalAlign=middle;resizable=0;points=[];labelBackgroundColor=#ffffff;fontFamily=Helvetica;fontSize=10;fontColor=#000000;" parent="420" vertex="1" connectable="0"><mxGeometry x="-0.1269" relative="1" as="geometry"><mxPoint x="4.17" as="offset"/></mxGeometry></mxCell><mxCell id="422" value="" style="endArrow=classic;html=1;endSize=8;arcSize=0;rounded=0;fontFamily=Helvetica;fontSize=10;fontColor=#000000;exitX=0.2;exitY=1;exitDx=0;exitDy=0;entryX=1;entryY=0.7;entryDx=0;entryDy=0;edgeStyle=orthogonalEdgeStyle;" parent="1" source="419" target="418" edge="1"><mxGeometry width="50" height="50" relative="1" as="geometry"><mxPoint x="-156" y="898.05" as="sourcePoint"/><mxPoint x="-25" y="959.05" as="targetPoint"/></mxGeometry></mxCell><mxCell id="423" value="&lt;div&gt;bigg:affectsBuilding&lt;/div&gt;" style="text;html=1;align=center;verticalAlign=middle;resizable=0;points=[];labelBackgroundColor=#ffffff;fontFamily=Helvetica;fontSize=10;fontColor=#000000;" parent="422" vertex="1" connectable="0"><mxGeometry x="-0.1269" relative="1" as="geometry"><mxPoint x="4.17" as="offset"/></mxGeometry></mxCell><mxCell id="425" value="bigg:RetrofitProject" style="rounded=0;whiteSpace=wrap;html=1;snapToPoint=1;points=[[0.1,0],[0.2,0],[0.3,0],[0.4,0],[0.5,0],[0.6,0],[0.7,0],[0.8,0],[0.9,0],[0,0.1],[0,0.3],[0,0.5],[0,0.7],[0,0.9],[0.1,1],[0.2,1],[0.3,1],[0.4,1],[0.5,1],[0.6,1],[0.7,1],[0.8,1],[0.9,1],[1,0.1],[1,0.3],[1,0.5],[1,0.7],[1,0.9]];" parent="1" vertex="1"><mxGeometry x="-235" y="800" width="135" height="30" as="geometry"/></mxCell><mxCell id="426" value="bigg:RenovationProject" style="rounded=0;whiteSpace=wrap;html=1;snapToPoint=1;points=[[0.1,0],[0.2,0],[0.3,0],[0.4,0],[0.5,0],[0.6,0],[0.7,0],[0.8,0],[0.9,0],[0,0.1],[0,0.3],[0,0.5],[0,0.7],[0,0.9],[0.1,1],[0.2,1],[0.3,1],[0.4,1],[0.5,1],[0.6,1],[0.7,1],[0.8,1],[0.9,1],[1,0.1],[1,0.3],[1,0.5],[1,0.7],[1,0.9]];" parent="1" vertex="1"><mxGeometry x="-240" y="875" width="134" height="30" as="geometry"/></mxCell><mxCell id="427" value="" style="endArrow=block;html=1;fontColor=#000099;endFill=0;endSize=8;arcSize=0;rounded=0;edgeStyle=orthogonalEdgeStyle;exitX=1;exitY=0.5;exitDx=0;exitDy=0;entryX=0.4;entryY=1;entryDx=0;entryDy=0;" parent="1" source="425" target="419" edge="1"><mxGeometry width="50" height="50" relative="1" as="geometry"><mxPoint x="414.5" y="479.04999999999995" as="sourcePoint"/><mxPoint x="-21.500000000000455" y="459.04999999999995" as="targetPoint"/></mxGeometry></mxCell><mxCell id="428" value="" style="endArrow=block;html=1;fontColor=#000099;exitX=1;exitY=0.7;exitDx=0;exitDy=0;endFill=0;endSize=8;arcSize=0;rounded=0;entryX=0.4;entryY=1;entryDx=0;entryDy=0;edgeStyle=orthogonalEdgeStyle;" parent="1" source="426" target="419" edge="1"><mxGeometry width="50" height="50" relative="1" as="geometry"><mxPoint x="-571.5" y="840" as="sourcePoint"/><mxPoint x="-70" y="730" as="targetPoint"/></mxGeometry></mxCell><mxCell id="433" value="" style="endArrow=classic;html=1;endSize=8;arcSize=0;rounded=0;fontFamily=Helvetica;fontSize=10;fontColor=#000000;exitX=0.944;exitY=0.017;exitDx=0;exitDy=0;edgeStyle=orthogonalEdgeStyle;entryX=1;entryY=0.3;entryDx=0;entryDy=0;exitPerimeter=0;" parent="1" source="419" target="419" edge="1"><mxGeometry width="50" height="50" relative="1" as="geometry"><mxPoint x="198.9999999999999" y="719.05" as="sourcePoint"/><mxPoint x="91" y="714.05" as="targetPoint"/><Array as="points"><mxPoint x="58" y="680"/><mxPoint x="110" y="680"/><mxPoint x="110" y="708"/></Array></mxGeometry></mxCell><mxCell id="434" value="&lt;div&gt;bigg:hasSubProject&lt;/div&gt;" style="text;html=1;align=center;verticalAlign=middle;resizable=0;points=[];labelBackgroundColor=#ffffff;fontFamily=Helvetica;fontSize=10;fontColor=#000000;" parent="433" vertex="1" connectable="0"><mxGeometry x="-0.1269" relative="1" as="geometry"><mxPoint x="4.17" as="offset"/></mxGeometry></mxCell><mxCell id="436" value="bigg:ProjectInvestmentCurrency" style="rounded=0;whiteSpace=wrap;html=1;snapToPoint=1;points=[[0.1,0],[0.2,0],[0.3,0],[0.4,0],[0.5,0],[0.6,0],[0.7,0],[0.8,0],[0.9,0],[0,0.1],[0,0.3],[0,0.5],[0,0.7],[0,0.9],[0.1,1],[0.2,1],[0.3,1],[0.4,1],[0.5,1],[0.6,1],[0.7,1],[0.8,1],[0.9,1],[1,0.1],[1,0.3],[1,0.5],[1,0.7],[1,0.9]];" parent="1" vertex="1"><mxGeometry x="171" y="760" width="179" height="30" as="geometry"/></mxCell><mxCell id="437" value="" style="endArrow=classic;html=1;endSize=8;arcSize=0;rounded=0;fontFamily=Helvetica;fontSize=10;fontColor=#000000;entryX=0.5;entryY=0;entryDx=0;entryDy=0;edgeStyle=orthogonalEdgeStyle;exitX=1;exitY=0.7;exitDx=0;exitDy=0;" parent="1" source="419" target="436" edge="1"><mxGeometry width="50" height="50" relative="1" as="geometry"><mxPoint x="68" y="444.04999999999995" as="sourcePoint"/><mxPoint x="-125" y="844.05" as="targetPoint"/></mxGeometry></mxCell><mxCell id="438" value="&lt;div&gt;bigg:hasProjectInvestmentCurrency&lt;/div&gt;" style="text;html=1;align=center;verticalAlign=middle;resizable=0;points=[];labelBackgroundColor=#ffffff;fontFamily=Helvetica;fontSize=10;fontColor=#000000;" parent="437" vertex="1" connectable="0"><mxGeometry x="-0.1269" relative="1" as="geometry"><mxPoint x="4.17" as="offset"/></mxGeometry></mxCell><mxCell id="440" value="bigg:ProjectMotivation" style="rounded=0;whiteSpace=wrap;html=1;snapToPoint=1;points=[[0.1,0],[0.2,0],[0.3,0],[0.4,0],[0.5,0],[0.6,0],[0.7,0],[0.8,0],[0.9,0],[0,0.1],[0,0.3],[0,0.5],[0,0.7],[0,0.9],[0.1,1],[0.2,1],[0.3,1],[0.4,1],[0.5,1],[0.6,1],[0.7,1],[0.8,1],[0.9,1],[1,0.1],[1,0.3],[1,0.5],[1,0.7],[1,0.9]];" parent="1" vertex="1"><mxGeometry x="10" y="760" width="149" height="30" as="geometry"/></mxCell><mxCell id="441" value="" style="endArrow=classic;html=1;endSize=8;arcSize=0;rounded=0;fontFamily=Helvetica;fontSize=10;fontColor=#000000;entryX=0.5;entryY=0;entryDx=0;entryDy=0;exitX=1;exitY=0.9;exitDx=0;exitDy=0;edgeStyle=orthogonalEdgeStyle;" parent="1" source="419" target="440" edge="1"><mxGeometry width="50" height="50" relative="1" as="geometry"><mxPoint x="68" y="444.04999999999995" as="sourcePoint"/><mxPoint x="265" y="434.04999999999995" as="targetPoint"/></mxGeometry></mxCell><mxCell id="442" value="&lt;div&gt;bigg:hasProjectMotivation&lt;/div&gt;" style="text;html=1;align=center;verticalAlign=middle;resizable=0;points=[];labelBackgroundColor=#ffffff;fontFamily=Helvetica;fontSize=10;fontColor=#000000;" parent="441" vertex="1" connectable="0"><mxGeometry x="-0.1269" relative="1" as="geometry"><mxPoint y="15" as="offset"/></mxGeometry></mxCell><mxCell id="443" value="bigg:EnergyEfficiencyMeasure" style="rounded=0;whiteSpace=wrap;html=1;snapToPoint=1;points=[[0.1,0],[0.2,0],[0.3,0],[0.4,0],[0.5,0],[0.6,0],[0.7,0],[0.8,0],[0.9,0],[0,0.1],[0,0.3],[0,0.5],[0,0.7],[0,0.9],[0.1,1],[0.2,1],[0.3,1],[0.4,1],[0.5,1],[0.6,1],[0.7,1],[0.8,1],[0.9,1],[1,0.1],[1,0.3],[1,0.5],[1,0.7],[1,0.9]];" parent="1" vertex="1"><mxGeometry x="-382" y="630" width="179" height="30" as="geometry"/></mxCell><mxCell id="455" value="" style="endArrow=classic;html=1;endSize=8;arcSize=0;rounded=0;fontFamily=Helvetica;fontSize=10;fontColor=#000000;entryX=0;entryY=0.5;entryDx=0;entryDy=0;exitX=0;exitY=0.5;exitDx=0;exitDy=0;edgeStyle=orthogonalEdgeStyle;" parent="1" source="425" target="443" edge="1"><mxGeometry width="50" height="50" relative="1" as="geometry"><mxPoint x="129.55" y="690" as="sourcePoint"/><mxPoint x="-14.449999999999989" y="550" as="targetPoint"/><Array as="points"><mxPoint x="-410" y="815"/><mxPoint x="-410" y="645"/></Array></mxGeometry></mxCell><mxCell id="456" value="&lt;div&gt;bigg:includesMeasure&lt;/div&gt;" style="text;html=1;align=center;verticalAlign=middle;resizable=0;points=[];labelBackgroundColor=#ffffff;fontFamily=Helvetica;fontSize=10;fontColor=#000000;" parent="455" vertex="1" connectable="0"><mxGeometry x="-0.1269" relative="1" as="geometry"><mxPoint x="78" as="offset"/></mxGeometry></mxCell><mxCell id="459" value="bigg:SavingProducingItem" style="rounded=0;whiteSpace=wrap;html=1;snapToPoint=1;points=[[0.1,0],[0.2,0],[0.3,0],[0.4,0],[0.5,0],[0.6,0],[0.7,0],[0.8,0],[0.9,0],[0,0.1],[0,0.3],[0,0.5],[0,0.7],[0,0.9],[0.1,1],[0.2,1],[0.3,1],[0.4,1],[0.5,1],[0.6,1],[0.7,1],[0.8,1],[0.9,1],[1,0.1],[1,0.3],[1,0.5],[1,0.7],[1,0.9]];" parent="1" vertex="1"><mxGeometry x="-320" y="530" width="159" height="30" as="geometry"/></mxCell><mxCell id="460" value="bigg:NonEnergyBenefitProducingItem" style="rounded=0;whiteSpace=wrap;html=1;snapToPoint=1;points=[[0.1,0],[0.2,0],[0.3,0],[0.4,0],[0.5,0],[0.6,0],[0.7,0],[0.8,0],[0.9,0],[0,0.1],[0,0.3],[0,0.5],[0,0.7],[0,0.9],[0.1,1],[0.2,1],[0.3,1],[0.4,1],[0.5,1],[0.6,1],[0.7,1],[0.8,1],[0.9,1],[1,0.1],[1,0.3],[1,0.5],[1,0.7],[1,0.9]];" parent="1" vertex="1"><mxGeometry x="-137" y="530" width="210" height="30" as="geometry"/></mxCell><mxCell id="461" value="" style="endArrow=block;html=1;fontColor=#000099;exitX=1;exitY=0.5;exitDx=0;exitDy=0;endFill=0;endSize=8;arcSize=0;rounded=0;edgeStyle=orthogonalEdgeStyle;entryX=0.1;entryY=1;entryDx=0;entryDy=0;" parent="1" source="443" target="460" edge="1"><mxGeometry width="50" height="50" relative="1" as="geometry"><mxPoint x="23.5" y="500" as="sourcePoint"/><mxPoint x="167.5" y="430" as="targetPoint"/></mxGeometry></mxCell><mxCell id="462" value="" style="endArrow=block;html=1;fontColor=#000099;endFill=0;endSize=8;arcSize=0;rounded=0;exitX=1;exitY=0.5;exitDx=0;exitDy=0;edgeStyle=orthogonalEdgeStyle;entryX=0.9;entryY=1;entryDx=0;entryDy=0;" parent="1" source="443" target="459" edge="1"><mxGeometry width="50" height="50" relative="1" as="geometry"><mxPoint x="-4.449999999999989" y="530" as="sourcePoint"/><mxPoint x="-170" y="560" as="targetPoint"/></mxGeometry></mxCell><mxCell id="463" value="" style="endArrow=block;html=1;fontColor=#000099;endFill=0;endSize=8;arcSize=0;rounded=0;entryX=0.1;entryY=1;entryDx=0;entryDy=0;edgeStyle=orthogonalEdgeStyle;exitX=0;exitY=0.3;exitDx=0;exitDy=0;" parent="1" source="419" target="460" edge="1"><mxGeometry width="50" height="50" relative="1" as="geometry"><mxPoint x="430" y="480" as="sourcePoint"/><mxPoint x="239" y="300" as="targetPoint"/></mxGeometry></mxCell><mxCell id="464" value="" style="endArrow=block;html=1;fontColor=#000099;endFill=0;endSize=8;arcSize=0;rounded=0;entryX=0.9;entryY=1;entryDx=0;entryDy=0;exitX=0;exitY=0.3;exitDx=0;exitDy=0;edgeStyle=orthogonalEdgeStyle;" parent="1" source="419" target="459" edge="1"><mxGeometry width="50" height="50" relative="1" as="geometry"><mxPoint x="157.49999999999955" y="390" as="sourcePoint"/><mxPoint x="239" y="300" as="targetPoint"/></mxGeometry></mxCell><mxCell id="465" value="bigg:NonEnergyBenefit" style="rounded=0;whiteSpace=wrap;html=1;snapToPoint=1;points=[[0.1,0],[0.2,0],[0.3,0],[0.4,0],[0.5,0],[0.6,0],[0.7,0],[0.8,0],[0.9,0],[0,0.1],[0,0.3],[0,0.5],[0,0.7],[0,0.9],[0.1,1],[0.2,1],[0.3,1],[0.4,1],[0.5,1],[0.6,1],[0.7,1],[0.8,1],[0.9,1],[1,0.1],[1,0.3],[1,0.5],[1,0.7],[1,0.9]];fillColor=#d5e8d4;strokeColor=#82b366;" parent="1" vertex="1"><mxGeometry x="480.5" y="755" width="230" height="30" as="geometry"/></mxCell><mxCell id="466" value="bigg:EnergySaving" style="rounded=0;whiteSpace=wrap;html=1;snapToPoint=1;points=[[0.1,0],[0.2,0],[0.3,0],[0.4,0],[0.5,0],[0.6,0],[0.7,0],[0.8,0],[0.9,0],[0,0.1],[0,0.3],[0,0.5],[0,0.7],[0,0.9],[0.1,1],[0.2,1],[0.3,1],[0.4,1],[0.5,1],[0.6,1],[0.7,1],[0.8,1],[0.9,1],[1,0.1],[1,0.3],[1,0.5],[1,0.7],[1,0.9]];fillColor=#d5e8d4;strokeColor=#82b366;" parent="1" vertex="1"><mxGeometry x="481" y="549.05" width="230" height="30" as="geometry"/></mxCell><mxCell id="467" value="&lt;span style=&quot;font-size: 8px;&quot;&gt;bigg:nonEnergyBenefitImpactVerificationMethod: string&lt;/span&gt;" style="rounded=0;whiteSpace=wrap;html=1;snapToPoint=1;points=[[0.1,0],[0.2,0],[0.3,0],[0.4,0],[0.5,0],[0.6,0],[0.7,0],[0.8,0],[0.9,0],[0,0.1],[0,0.3],[0,0.5],[0,0.7],[0,0.9],[0.1,1],[0.2,1],[0.3,1],[0.4,1],[0.5,1],[0.6,1],[0.7,1],[0.8,1],[0.9,1],[1,0.1],[1,0.3],[1,0.5],[1,0.7],[1,0.9]];fontSize=8;" parent="1" vertex="1"><mxGeometry x="480.5" y="785" width="230" height="30" as="geometry"/></mxCell><mxCell id="468" value="&lt;span style=&quot;font-size: 8px;&quot;&gt;bigg:nonEnergyBenefitImpactValue&lt;/span&gt;" style="rounded=0;whiteSpace=wrap;html=1;snapToPoint=1;points=[[0.1,0],[0.2,0],[0.3,0],[0.4,0],[0.5,0],[0.6,0],[0.7,0],[0.8,0],[0.9,0],[0,0.1],[0,0.3],[0,0.5],[0,0.7],[0,0.9],[0.1,1],[0.2,1],[0.3,1],[0.4,1],[0.5,1],[0.6,1],[0.7,1],[0.8,1],[0.9,1],[1,0.1],[1,0.3],[1,0.5],[1,0.7],[1,0.9]];fontSize=8;" parent="1" vertex="1"><mxGeometry x="480.5" y="815" width="230" height="30" as="geometry"/></mxCell><mxCell id="469" value="&lt;span style=&quot;font-size: 8px;&quot;&gt;bigg:nonEnergyBenefitImpactValueVerifiedAndMeasured: boolean&lt;/span&gt;" style="rounded=0;whiteSpace=wrap;html=1;snapToPoint=1;points=[[0.1,0],[0.2,0],[0.3,0],[0.4,0],[0.5,0],[0.6,0],[0.7,0],[0.8,0],[0.9,0],[0,0.1],[0,0.3],[0,0.5],[0,0.7],[0,0.9],[0.1,1],[0.2,1],[0.3,1],[0.4,1],[0.5,1],[0.6,1],[0.7,1],[0.8,1],[0.9,1],[1,0.1],[1,0.3],[1,0.5],[1,0.7],[1,0.9]];fontSize=8;" parent="1" vertex="1"><mxGeometry x="480.5" y="845" width="230" height="30" as="geometry"/></mxCell><mxCell id="470" value="&lt;span style=&quot;font-size: 8px;&quot;&gt;bigg:nonEnergyBenefitImpactValueDescription: string&lt;/span&gt;" style="rounded=0;whiteSpace=wrap;html=1;snapToPoint=1;points=[[0.1,0],[0.2,0],[0.3,0],[0.4,0],[0.5,0],[0.6,0],[0.7,0],[0.8,0],[0.9,0],[0,0.1],[0,0.3],[0,0.5],[0,0.7],[0,0.9],[0.1,1],[0.2,1],[0.3,1],[0.4,1],[0.5,1],[0.6,1],[0.7,1],[0.8,1],[0.9,1],[1,0.1],[1,0.3],[1,0.5],[1,0.7],[1,0.9]];fontSize=8;" parent="1" vertex="1"><mxGeometry x="480.5" y="875" width="230" height="30" as="geometry"/></mxCell><mxCell id="471" value="&lt;span style=&quot;font-size: 8px;&quot;&gt;bigg:energySavingEndDate: string&lt;/span&gt;" style="rounded=0;whiteSpace=wrap;html=1;snapToPoint=1;points=[[0.1,0],[0.2,0],[0.3,0],[0.4,0],[0.5,0],[0.6,0],[0.7,0],[0.8,0],[0.9,0],[0,0.1],[0,0.3],[0,0.5],[0,0.7],[0,0.9],[0.1,1],[0.2,1],[0.3,1],[0.4,1],[0.5,1],[0.6,1],[0.7,1],[0.8,1],[0.9,1],[1,0.1],[1,0.3],[1,0.5],[1,0.7],[1,0.9]];fontSize=8;" parent="1" vertex="1"><mxGeometry x="480.5" y="609.05" width="230" height="30" as="geometry"/></mxCell><mxCell id="472" value="&lt;span style=&quot;font-size: 8px;&quot;&gt;bigg:energySavingStartDate: string&lt;/span&gt;" style="rounded=0;whiteSpace=wrap;html=1;snapToPoint=1;points=[[0.1,0],[0.2,0],[0.3,0],[0.4,0],[0.5,0],[0.6,0],[0.7,0],[0.8,0],[0.9,0],[0,0.1],[0,0.3],[0,0.5],[0,0.7],[0,0.9],[0.1,1],[0.2,1],[0.3,1],[0.4,1],[0.5,1],[0.6,1],[0.7,1],[0.8,1],[0.9,1],[1,0.1],[1,0.3],[1,0.5],[1,0.7],[1,0.9]];fontSize=8;" parent="1" vertex="1"><mxGeometry x="480.5" y="579.05" width="230" height="30" as="geometry"/></mxCell><mxCell id="474" value="&lt;span style=&quot;font-size: 8px;&quot;&gt;bigg:energySavingValue: float&lt;/span&gt;" style="rounded=0;whiteSpace=wrap;html=1;snapToPoint=1;points=[[0.1,0],[0.2,0],[0.3,0],[0.4,0],[0.5,0],[0.6,0],[0.7,0],[0.8,0],[0.9,0],[0,0.1],[0,0.3],[0,0.5],[0,0.7],[0,0.9],[0.1,1],[0.2,1],[0.3,1],[0.4,1],[0.5,1],[0.6,1],[0.7,1],[0.8,1],[0.9,1],[1,0.1],[1,0.3],[1,0.5],[1,0.7],[1,0.9]];fontSize=8;" parent="1" vertex="1"><mxGeometry x="480.5" y="639.05" width="230" height="30" as="geometry"/></mxCell><mxCell id="475" value="&lt;span style=&quot;font-size: 8px;&quot;&gt;bigg:energySavingIndependentlyVerified: boolean&lt;/span&gt;" style="rounded=0;whiteSpace=wrap;html=1;snapToPoint=1;points=[[0.1,0],[0.2,0],[0.3,0],[0.4,0],[0.5,0],[0.6,0],[0.7,0],[0.8,0],[0.9,0],[0,0.1],[0,0.3],[0,0.5],[0,0.7],[0,0.9],[0.1,1],[0.2,1],[0.3,1],[0.4,1],[0.5,1],[0.6,1],[0.7,1],[0.8,1],[0.9,1],[1,0.1],[1,0.3],[1,0.5],[1,0.7],[1,0.9]];fontSize=8;" parent="1" vertex="1"><mxGeometry x="480.5" y="669.05" width="230" height="30" as="geometry"/></mxCell><mxCell id="481" value="bigg:NonEnergyBenefit" style="rounded=0;whiteSpace=wrap;html=1;snapToPoint=1;points=[[0.1,0],[0.2,0],[0.3,0],[0.4,0],[0.5,0],[0.6,0],[0.7,0],[0.8,0],[0.9,0],[0,0.1],[0,0.3],[0,0.5],[0,0.7],[0,0.9],[0.1,1],[0.2,1],[0.3,1],[0.4,1],[0.5,1],[0.6,1],[0.7,1],[0.8,1],[0.9,1],[1,0.1],[1,0.3],[1,0.5],[1,0.7],[1,0.9]];" parent="1" vertex="1"><mxGeometry x="260" y="529.97" width="170" height="30" as="geometry"/></mxCell><mxCell id="482" value="" style="endArrow=classic;html=1;endSize=8;arcSize=0;rounded=0;fontFamily=Helvetica;fontSize=10;fontColor=#000000;entryX=0;entryY=0.5;entryDx=0;entryDy=0;exitX=1;exitY=0.5;exitDx=0;exitDy=0;" parent="1" source="460" target="481" edge="1"><mxGeometry width="50" height="50" relative="1" as="geometry"><mxPoint x="217" y="624.05" as="sourcePoint"/><mxPoint x="404" y="604.05" as="targetPoint"/></mxGeometry></mxCell><mxCell id="483" value="&lt;div&gt;bigg:producesNonEnergyBenefit&lt;/div&gt;" style="text;html=1;align=center;verticalAlign=middle;resizable=0;points=[];labelBackgroundColor=#ffffff;fontFamily=Helvetica;fontSize=10;fontColor=#000000;" parent="482" vertex="1" connectable="0"><mxGeometry x="-0.1269" relative="1" as="geometry"><mxPoint x="4.17" as="offset"/></mxGeometry></mxCell><mxCell id="484" value="" style="endArrow=classic;html=1;endSize=8;arcSize=0;rounded=0;fontFamily=Helvetica;fontSize=10;fontColor=#000000;exitX=0;exitY=0.5;exitDx=0;exitDy=0;entryX=0.3;entryY=1;entryDx=0;entryDy=0;edgeStyle=orthogonalEdgeStyle;" parent="1" source="459" target="487" edge="1"><mxGeometry width="50" height="50" relative="1" as="geometry"><mxPoint x="380" y="285" as="sourcePoint"/><mxPoint x="-311.37931034482756" y="275" as="targetPoint"/></mxGeometry></mxCell><mxCell id="485" value="&lt;div&gt;bigg:producesSaving&lt;/div&gt;" style="text;html=1;align=center;verticalAlign=middle;resizable=0;points=[];labelBackgroundColor=#ffffff;fontFamily=Helvetica;fontSize=10;fontColor=#000000;" parent="484" vertex="1" connectable="0"><mxGeometry x="-0.1269" relative="1" as="geometry"><mxPoint x="27" y="-27" as="offset"/></mxGeometry></mxCell><mxCell id="487" value="bigg:EnergySaving" style="rounded=0;whiteSpace=wrap;html=1;snapToPoint=1;points=[[0.1,0],[0.2,0],[0.3,0],[0.4,0],[0.5,0],[0.6,0],[0.7,0],[0.8,0],[0.9,0],[0,0.1],[0,0.3],[0,0.5],[0,0.7],[0,0.9],[0.1,1],[0.2,1],[0.3,1],[0.4,1],[0.5,1],[0.6,1],[0.7,1],[0.8,1],[0.9,1],[1,0.1],[1,0.3],[1,0.5],[1,0.7],[1,0.9]];" parent="1" vertex="1"><mxGeometry x="-396" y="450" width="136" height="30" as="geometry"/></mxCell><mxCell id="488" value="" style="endArrow=classic;html=1;endSize=8;arcSize=0;rounded=0;fontFamily=Helvetica;fontSize=10;fontColor=#000000;exitX=0.7;exitY=0;exitDx=0;exitDy=0;entryX=0.7;entryY=1;entryDx=0;entryDy=0;edgeStyle=orthogonalEdgeStyle;" parent="1" source="481" target="490" edge="1"><mxGeometry width="50" height="50" relative="1" as="geometry"><mxPoint x="30" y="554.97" as="sourcePoint"/><mxPoint x="590" y="469.97" as="targetPoint"/></mxGeometry></mxCell><mxCell id="489" value="&lt;div&gt;bigg:hasNonEnergyBenefitImpactEvaluation&lt;/div&gt;" style="text;html=1;align=center;verticalAlign=middle;resizable=0;points=[];labelBackgroundColor=#ffffff;fontFamily=Helvetica;fontSize=10;fontColor=#000000;" parent="488" vertex="1" connectable="0"><mxGeometry x="-0.1269" relative="1" as="geometry"><mxPoint x="-22" as="offset"/></mxGeometry></mxCell><mxCell id="490" value="bigg:NonEnergyBenefitImpactEvaluation" style="rounded=0;whiteSpace=wrap;html=1;snapToPoint=1;points=[[0.1,0],[0.2,0],[0.3,0],[0.4,0],[0.5,0],[0.6,0],[0.7,0],[0.8,0],[0.9,0],[0,0.1],[0,0.3],[0,0.5],[0,0.7],[0,0.9],[0.1,1],[0.2,1],[0.3,1],[0.4,1],[0.5,1],[0.6,1],[0.7,1],[0.8,1],[0.9,1],[1,0.1],[1,0.3],[1,0.5],[1,0.7],[1,0.9]];" parent="1" vertex="1"><mxGeometry x="218" y="450" width="230" height="30" as="geometry"/></mxCell><mxCell id="491" value="" style="endArrow=classic;html=1;endSize=8;arcSize=0;rounded=0;fontFamily=Helvetica;fontSize=10;fontColor=#000000;exitX=0.7;exitY=1;exitDx=0;exitDy=0;entryX=0.7;entryY=0;entryDx=0;entryDy=0;edgeStyle=orthogonalEdgeStyle;" parent="1" source="481" target="493" edge="1"><mxGeometry width="50" height="50" relative="1" as="geometry"><mxPoint x="440" y="548.97" as="sourcePoint"/><mxPoint x="610" y="544.97" as="targetPoint"/></mxGeometry></mxCell><mxCell id="492" value="&lt;div&gt;bigg:hasNonEnergyBenefitImpactValueUnit&lt;/div&gt;" style="text;html=1;align=center;verticalAlign=middle;resizable=0;points=[];labelBackgroundColor=#ffffff;fontFamily=Helvetica;fontSize=10;fontColor=#000000;" parent="491" vertex="1" connectable="0"><mxGeometry x="-0.1269" relative="1" as="geometry"><mxPoint x="-23" y="18" as="offset"/></mxGeometry></mxCell><mxCell id="493" value="bigg:NonEnergyBenefitImpactValueUnit" style="rounded=0;whiteSpace=wrap;html=1;snapToPoint=1;points=[[0.1,0],[0.2,0],[0.3,0],[0.4,0],[0.5,0],[0.6,0],[0.7,0],[0.8,0],[0.9,0],[0,0.1],[0,0.3],[0,0.5],[0,0.7],[0,0.9],[0.1,1],[0.2,1],[0.3,1],[0.4,1],[0.5,1],[0.6,1],[0.7,1],[0.8,1],[0.9,1],[1,0.1],[1,0.3],[1,0.5],[1,0.7],[1,0.9]];" parent="1" vertex="1"><mxGeometry x="218" y="632.95" width="230" height="30" as="geometry"/></mxCell><mxCell id="494" value="skos:Concept" style="rounded=0;whiteSpace=wrap;html=1;snapToPoint=1;points=[[0.1,0],[0.2,0],[0.3,0],[0.4,0],[0.5,0],[0.6,0],[0.7,0],[0.8,0],[0.9,0],[0,0.1],[0,0.3],[0,0.5],[0,0.7],[0,0.9],[0.1,1],[0.2,1],[0.3,1],[0.4,1],[0.5,1],[0.6,1],[0.7,1],[0.8,1],[0.9,1],[1,0.1],[1,0.3],[1,0.5],[1,0.7],[1,0.9]];" parent="1" vertex="1"><mxGeometry x="89" y="620" width="99" height="30" as="geometry"/></mxCell><mxCell id="495" value="" style="endArrow=classic;html=1;endSize=8;arcSize=0;rounded=0;fontFamily=Helvetica;fontSize=10;fontColor=#000000;exitX=0.5;exitY=1;exitDx=0;exitDy=0;edgeStyle=orthogonalEdgeStyle;" parent="1" source="481" target="494" edge="1"><mxGeometry width="50" height="50" relative="1" as="geometry"><mxPoint x="440" y="554.97" as="sourcePoint"/><mxPoint x="660" y="554.97" as="targetPoint"/></mxGeometry></mxCell><mxCell id="496" value="&lt;div&gt;bigg:hasNonEnergyBenefitType&lt;/div&gt;" style="text;html=1;align=center;verticalAlign=middle;resizable=0;points=[];labelBackgroundColor=#ffffff;fontFamily=Helvetica;fontSize=10;fontColor=#000000;" parent="495" vertex="1" connectable="0"><mxGeometry x="-0.1269" relative="1" as="geometry"><mxPoint y="-2" as="offset"/></mxGeometry></mxCell><mxCell id="497" value="bigg:EnergySavingVerificationSource" style="rounded=0;whiteSpace=wrap;html=1;snapToPoint=1;points=[[0.1,0],[0.2,0],[0.3,0],[0.4,0],[0.5,0],[0.6,0],[0.7,0],[0.8,0],[0.9,0],[0,0.1],[0,0.3],[0,0.5],[0,0.7],[0,0.9],[0.1,1],[0.2,1],[0.3,1],[0.4,1],[0.5,1],[0.6,1],[0.7,1],[0.8,1],[0.9,1],[1,0.1],[1,0.3],[1,0.5],[1,0.7],[1,0.9]];" parent="1" vertex="1"><mxGeometry x="-428" y="378" width="230" height="30" as="geometry"/></mxCell><mxCell id="498" value="skos:Concept" style="rounded=0;whiteSpace=wrap;html=1;snapToPoint=1;points=[[0.1,0],[0.2,0],[0.3,0],[0.4,0],[0.5,0],[0.6,0],[0.7,0],[0.8,0],[0.9,0],[0,0.1],[0,0.3],[0,0.5],[0,0.7],[0,0.9],[0.1,1],[0.2,1],[0.3,1],[0.4,1],[0.5,1],[0.6,1],[0.7,1],[0.8,1],[0.9,1],[1,0.1],[1,0.3],[1,0.5],[1,0.7],[1,0.9]];" parent="1" vertex="1"><mxGeometry x="-430" y="584" width="94" height="30" as="geometry"/></mxCell><mxCell id="499" value="" style="endArrow=classic;html=1;endSize=8;arcSize=0;rounded=0;fontFamily=Helvetica;fontSize=10;fontColor=#000000;exitX=0.1;exitY=0;exitDx=0;exitDy=0;entryX=0.2;entryY=1;entryDx=0;entryDy=0;" parent="1" source="487" target="497" edge="1"><mxGeometry width="50" height="50" relative="1" as="geometry"><mxPoint x="14" y="475" as="sourcePoint"/><mxPoint x="-156" y="475" as="targetPoint"/></mxGeometry></mxCell><mxCell id="500" value="&lt;div&gt;bigg:hasEnergySavingVerificationSource&lt;/div&gt;" style="text;html=1;align=center;verticalAlign=middle;resizable=0;points=[];labelBackgroundColor=#ffffff;fontFamily=Helvetica;fontSize=10;fontColor=#000000;" parent="499" vertex="1" connectable="0"><mxGeometry x="-0.1269" relative="1" as="geometry"><mxPoint x="4.17" as="offset"/></mxGeometry></mxCell><mxCell id="502" value="" style="endArrow=classic;html=1;endSize=8;arcSize=0;rounded=0;fontFamily=Helvetica;fontSize=10;fontColor=#000000;exitX=0.1;exitY=1;exitDx=0;exitDy=0;entryX=0.5;entryY=0;entryDx=0;entryDy=0;edgeStyle=orthogonalEdgeStyle;" parent="1" source="487" target="498" edge="1"><mxGeometry width="50" height="50" relative="1" as="geometry"><mxPoint x="-386" y="475" as="sourcePoint"/><mxPoint x="-526" y="395" as="targetPoint"/></mxGeometry></mxCell><mxCell id="503" value="&lt;div&gt;bigg:hasEnergySavingType&lt;/div&gt;" style="text;html=1;align=center;verticalAlign=middle;resizable=0;points=[];labelBackgroundColor=#ffffff;fontFamily=Helvetica;fontSize=10;fontColor=#000000;" parent="502" vertex="1" connectable="0"><mxGeometry x="-0.1269" relative="1" as="geometry"><mxPoint x="-14" y="28" as="offset"/></mxGeometry></mxCell><mxCell id="510" value="bigg:EnergyPerformanceContractObjective" style="rounded=0;whiteSpace=wrap;html=1;snapToPoint=1;points=[[0.1,0],[0.2,0],[0.3,0],[0.4,0],[0.5,0],[0.6,0],[0.7,0],[0.8,0],[0.9,0],[0,0.1],[0,0.3],[0,0.5],[0,0.7],[0,0.9],[0.1,1],[0.2,1],[0.3,1],[0.4,1],[0.5,1],[0.6,1],[0.7,1],[0.8,1],[0.9,1],[1,0.1],[1,0.3],[1,0.5],[1,0.7],[1,0.9]];" parent="1" vertex="1"><mxGeometry x="-100" y="410" width="250" height="30" as="geometry"/></mxCell><mxCell id="511" value="" style="endArrow=classic;html=1;endSize=8;arcSize=0;rounded=0;fontFamily=Helvetica;fontSize=10;fontColor=#000000;exitX=1;exitY=0.5;exitDx=0;exitDy=0;edgeStyle=orthogonalEdgeStyle;entryX=0.4;entryY=1;entryDx=0;entryDy=0;" parent="1" source="487" target="510" edge="1"><mxGeometry width="50" height="50" relative="1" as="geometry"><mxPoint x="-189" y="450" as="sourcePoint"/><mxPoint x="-197" y="320" as="targetPoint"/></mxGeometry></mxCell><mxCell id="512" value="&lt;div&gt;bigg:influencesObjective&lt;/div&gt;" style="text;html=1;align=center;verticalAlign=middle;resizable=0;points=[];labelBackgroundColor=#ffffff;fontFamily=Helvetica;fontSize=10;fontColor=#000000;" parent="511" vertex="1" connectable="0"><mxGeometry x="-0.1269" relative="1" as="geometry"><mxPoint x="4.17" as="offset"/></mxGeometry></mxCell><mxCell id="513" value="" style="endArrow=classic;html=1;endSize=8;arcSize=0;rounded=0;fontFamily=Helvetica;fontSize=10;fontColor=#000000;exitX=0;exitY=0.5;exitDx=0;exitDy=0;entryX=0.9;entryY=0;entryDx=0;entryDy=0;edgeStyle=orthogonalEdgeStyle;" parent="1" source="510" target="487" edge="1"><mxGeometry width="50" height="50" relative="1" as="geometry"><mxPoint x="-179" y="460" as="sourcePoint"/><mxPoint x="-179" y="330" as="targetPoint"/></mxGeometry></mxCell><mxCell id="514" value="&lt;div&gt;bigg:IsConnectedToEnergySaving&lt;/div&gt;" style="text;html=1;align=center;verticalAlign=middle;resizable=0;points=[];labelBackgroundColor=#ffffff;fontFamily=Helvetica;fontSize=10;fontColor=#000000;" parent="513" vertex="1" connectable="0"><mxGeometry x="-0.1269" relative="1" as="geometry"><mxPoint x="4.17" as="offset"/></mxGeometry></mxCell><mxCell id="528" value="" style="endArrow=block;html=1;fontColor=#000099;endFill=0;endSize=8;arcSize=0;rounded=0;exitX=0.4;exitY=0;exitDx=0;exitDy=0;" parent="1" source="419" target="529" edge="1"><mxGeometry width="50" height="50" relative="1" as="geometry"><mxPoint x="280.5" y="589.0500000000002" as="sourcePoint"/><mxPoint x="-21" y="630" as="targetPoint"/></mxGeometry></mxCell><mxCell id="529" value="foaf:Project" style="rounded=0;whiteSpace=wrap;html=1;snapToPoint=1;points=[[0.1,0],[0.2,0],[0.3,0],[0.4,0],[0.5,0],[0.6,0],[0.7,0],[0.8,0],[0.9,0],[0,0.1],[0,0.3],[0,0.5],[0,0.7],[0,0.9],[0.1,1],[0.2,1],[0.3,1],[0.4,1],[0.5,1],[0.6,1],[0.7,1],[0.8,1],[0.9,1],[1,0.1],[1,0.3],[1,0.5],[1,0.7],[1,0.9]];" parent="1" vertex="1"><mxGeometry x="-88" y="610.95" width="110" height="30" as="geometry"/></mxCell></root></mxGraphModel></diagram></mxfile>